<svg width="23" height="24" viewBox="0 0 23 24" fill="none" xmlns="http://www.w3.org/2000/svg">
<path d="M20.503 0.562988H14.197C13.2305 0.562988 12.447 1.34649 12.447 2.31299V8.61899C12.447 9.58549 13.2305 10.369 14.197 10.369H20.503C21.4695 10.369 22.253 9.58549 22.253 8.61899V2.31299C22.253 1.34649 21.4695 0.562988 20.503 0.562988Z" fill="#61A57E"/>
<path d="M22.236 16.576L18.627 12.967C18.2879 12.6291 17.8287 12.4393 17.35 12.4393C16.8713 12.4393 16.4121 12.6291 16.073 12.967L12.464 16.576C12.1258 16.9149 11.9359 17.3742 11.9359 17.853C11.9359 18.3318 12.1258 18.791 12.464 19.13L16.073 22.739C16.412 23.0772 16.8712 23.2671 17.35 23.2671C17.8288 23.2671 18.2881 23.0772 18.627 22.739L22.236 19.13C22.5744 18.7912 22.7645 18.3319 22.7645 17.853C22.7645 17.3741 22.5744 16.9148 22.236 16.576Z" fill="#61A57E"/>
<path d="M8.116 0.562988H1.81C0.843499 0.562988 0.0599976 1.34649 0.0599976 2.31299V8.61899C0.0599976 9.58549 0.843499 10.369 1.81 10.369H8.116C9.0825 10.369 9.866 9.58549 9.866 8.61899V2.31299C9.866 1.34649 9.0825 0.562988 8.116 0.562988Z" fill="#61A57E"/>
<path d="M8.116 12.95H1.81C0.843499 12.95 0.0599976 13.7335 0.0599976 14.7V21.006C0.0599976 21.9725 0.843499 22.756 1.81 22.756H8.116C9.0825 22.756 9.866 21.9725 9.866 21.006V14.7C9.866 13.7335 9.0825 12.95 8.116 12.95Z" fill="#61A57E"/>
</svg>
