<svg width="23" height="19" viewBox="0 0 23 19" fill="none" xmlns="http://www.w3.org/2000/svg">
<path fill-rule="evenodd" clip-rule="evenodd" d="M18.392 9.2C19.2525 9.20027 20.0958 8.95917 20.8262 8.50409C21.5565 8.04902 22.1445 7.39821 22.5234 6.62563C22.9024 5.85305 23.057 4.98967 22.9697 4.1336C22.8825 3.27753 22.5569 2.4631 22.0299 1.78284C21.5029 1.10259 20.7956 0.583796 19.9885 0.285409C19.1814 -0.0129772 18.3068 -0.0789901 17.464 0.0948717C16.6213 0.268734 15.8442 0.675498 15.2211 1.26894C14.5979 1.86239 14.1538 2.61872 13.939 3.452H1.15C0.845001 3.452 0.552494 3.57316 0.336827 3.78883C0.12116 4.0045 0 4.297 0 4.602C0 4.907 0.12116 5.19951 0.336827 5.41517C0.552494 5.63084 0.845001 5.752 1.15 5.752H13.939C14.1943 6.73889 14.7702 7.61303 15.5762 8.23713C16.3822 8.86122 17.3726 9.19991 18.392 9.2ZM16.092 4.6C16.092 5.0549 16.2269 5.49958 16.4796 5.87781C16.7323 6.25604 17.0916 6.55084 17.5118 6.72492C17.9321 6.899 18.3946 6.94455 18.8407 6.85581C19.2869 6.76706 19.6967 6.54801 20.0183 6.22635C20.34 5.90469 20.5591 5.49486 20.6478 5.04871C20.7366 4.60255 20.691 4.1401 20.5169 3.71983C20.3428 3.29956 20.048 2.94035 19.6698 2.68762C19.2916 2.43489 18.8469 2.3 18.392 2.3C17.7822 2.30027 17.1974 2.5427 16.7663 2.97401C16.3352 3.40531 16.093 3.99018 16.093 4.6H16.092ZM0 13.794C0.00273077 12.6764 0.412269 11.5979 1.1521 10.7602C1.89194 9.92251 2.91145 9.3828 4.02018 9.24193C5.12891 9.10105 6.251 9.36866 7.17682 9.99474C8.10264 10.6208 8.76886 11.5626 9.051 12.644H21.841C21.992 12.644 22.1416 12.6737 22.2811 12.7315C22.4206 12.7893 22.5474 12.874 22.6542 12.9808C22.761 13.0876 22.8457 13.2144 22.9035 13.3539C22.9613 13.4934 22.991 13.643 22.991 13.794C22.991 13.945 22.9613 14.0946 22.9035 14.2341C22.8457 14.3736 22.761 14.5004 22.6542 14.6072C22.5474 14.714 22.4206 14.7987 22.2811 14.8565C22.1416 14.9143 21.992 14.944 21.841 14.944H9.051C8.76886 16.0254 8.10264 16.9672 7.17682 17.5933C6.251 18.2193 5.12891 18.4869 4.02018 18.3461C2.91145 18.2052 1.89194 17.6655 1.1521 16.8278C0.412269 15.9901 0.00273077 14.9116 0 13.794ZM6.9 13.794C6.9 13.3391 6.76511 12.8944 6.51238 12.5162C6.25965 12.138 5.90044 11.8432 5.48017 11.6691C5.0599 11.495 4.59745 11.4494 4.15129 11.5382C3.70514 11.6269 3.29532 11.846 2.97365 12.1677C2.65199 12.4893 2.43294 12.8991 2.34419 13.3453C2.25545 13.7915 2.301 14.2539 2.47508 14.6742C2.64916 15.0944 2.94396 15.4537 3.32219 15.7064C3.70042 15.9591 4.1451 16.094 4.6 16.094C4.90204 16.094 5.20112 16.0345 5.48017 15.9189C5.75922 15.8033 6.01277 15.6339 6.22635 15.4203C6.43992 15.2068 6.60934 14.9532 6.72492 14.6742C6.84051 14.3951 6.9 14.096 6.9 13.794Z" fill="#353535"/>
</svg>
